<svg xmlns="http://www.w3.org/2000/svg" viewBox="0 0 205.08 200.01"><defs><style>.cls-1,.cls-2{fill:#1a1414;}.cls-1{fill-rule:evenodd;}</style></defs><g id="レイヤー_2" data-name="レイヤー 2"><g id="レイヤー_1-2" data-name="レイヤー 1"><path class="cls-1" d="M102.54,0A102.55,102.55,0,0,0,70.12,199.84c5.13.94,7-2.23,7-4.94,0-2.44-.1-10.52-.14-19.09-28.53,6.21-34.55-12.1-34.55-12.1-4.66-11.85-11.38-15-11.38-15-9.31-6.36.7-6.23.7-6.23,10.3.72,15.72,10.57,15.72,10.57,9.14,15.67,24,11.14,29.84,8.52.92-6.63,3.57-11.15,6.51-13.71-22.78-2.6-46.72-11.39-46.72-50.68A39.72,39.72,0,0,1,47.67,69.66c-1.06-2.58-4.57-13,1-27.14,0,0,8.61-2.75,28.2,10.51a97.3,97.3,0,0,1,51.36,0c19.57-13.26,28.16-10.51,28.16-10.51,5.59,14.13,2.08,24.56,1,27.14A39.58,39.58,0,0,1,168,97.18c0,39.39-24,48.06-46.82,50.6,3.68,3.18,7,9.42,7,19,0,13.72-.12,24.77-.12,28.14,0,2.73,1.85,5.93,7,4.92A102.55,102.55,0,0,0,102.54,0Z"/><path class="cls-2" d="M38.84,147.22c-.23.51-1,.66-1.76.31s-1.16-1-.92-1.54,1-.67,1.76-.32,1.17,1,.92,1.55Z"/><path class="cls-2" d="M43,151.85c-.49.46-1.45.25-2.09-.47a1.55,1.55,0,0,1-.3-2.13c.5-.45,1.43-.24,2.1.47s.8,1.68.29,2.13Z"/><path class="cls-2" d="M47,157.76c-.63.44-1.65,0-2.29-.88s-.63-2,0-2.45,1.64,0,2.29.86.62,2,0,2.47Z"/><path class="cls-2" d="M52.57,163.47c-.56.62-1.76.45-2.63-.4s-1.15-2-.59-2.62,1.78-.44,2.66.4,1.16,2,.56,2.62Z"/><path class="cls-2" d="M60.21,166.78c-.25.8-1.4,1.17-2.56.82s-1.92-1.29-1.68-2.1,1.4-1.19,2.56-.82,1.92,1.28,1.68,2.1Z"/><path class="cls-2" d="M68.6,167.39c0,.85-.95,1.55-2.17,1.56s-2.22-.65-2.23-1.49,1-1.54,2.19-1.56,2.21.65,2.21,1.49Z"/><path class="cls-2" d="M76.41,166.06c.15.83-.7,1.68-1.91,1.9s-2.29-.29-2.44-1.11.71-1.69,1.9-1.91,2.3.28,2.45,1.12Z"/></g></g></svg>