<svg xmlns="http://www.w3.org/2000/svg" xmlns:xlink="http://www.w3.org/1999/xlink" viewBox="0 0 200.02 200.01"><defs><style>.cls-1{fill:url(#linear-gradient);}</style><linearGradient id="linear-gradient" x1="16.79" y1="183.23" x2="183.23" y2="16.78" gradientUnits="userSpaceOnUse"><stop offset="0" stop-color="#f3d22d"/><stop offset="0.05" stop-color="#f3d22d"/><stop offset="0.5" stop-color="#dd2726"/><stop offset="0.95" stop-color="#9a398b"/><stop offset="1" stop-color="#9a398b"/></linearGradient></defs><g id="レイヤー_2" data-name="レイヤー 2"><g id="レイヤー_1-2" data-name="レイヤー 1"><path class="cls-1" d="M100,48.65A51.36,51.36,0,1,0,151.37,100,51.37,51.37,0,0,0,100,48.65Zm0,84.69A33.34,33.34,0,1,1,133.35,100,33.34,33.34,0,0,1,100,133.34Zm65.38-86.72a12,12,0,1,1-12-12A12,12,0,0,1,165.39,46.62ZM194.77,34.5a49.08,49.08,0,0,0-11.54-17.72A48.93,48.93,0,0,0,165.52,5.25C159.16,2.77,151.89,1.08,141.24.6S127.17,0,100,0,69.44.11,58.78.6,40.86,2.77,34.5,5.25A48.93,48.93,0,0,0,16.79,16.78,49.08,49.08,0,0,0,5.25,34.5C2.77,40.86,1.09,48.13.6,58.78S0,72.85,0,100s.11,30.56.6,41.23,2.17,17.92,4.65,24.27a49.08,49.08,0,0,0,11.54,17.72A49,49,0,0,0,34.5,194.77c6.36,2.47,13.63,4.16,24.28,4.64s14.07.6,41.23.6,30.57-.11,41.23-.6,17.92-2.17,24.28-4.64a51.19,51.19,0,0,0,29.25-29.26c2.47-6.35,4.16-13.63,4.64-24.27S200,127.16,200,100s-.12-30.57-.61-41.23S197.24,40.86,194.77,34.5ZM181.41,140.42c-.44,9.75-2.07,15-3.44,18.57a33.1,33.1,0,0,1-19,19c-3.52,1.37-8.82,3-18.57,3.44-10.55.48-13.7.59-40.41.59s-29.86-.11-40.41-.59C49.85,181,44.55,179.34,41,178a31.16,31.16,0,0,1-11.51-7.48A31.17,31.17,0,0,1,22,159c-1.36-3.53-3-8.82-3.44-18.57C18.13,129.87,18,126.71,18,100s.11-29.87.58-40.42C19,49.85,20.68,44.55,22,41a31.2,31.2,0,0,1,7.48-11.51A31.16,31.16,0,0,1,41,22c3.52-1.37,8.82-3,18.57-3.44C70.15,18.12,73.3,18,100,18s29.86.1,40.41.58c9.75.45,15.05,2.07,18.57,3.44a31,31,0,0,1,11.5,7.48A31,31,0,0,1,178,41c1.37,3.52,3,8.82,3.44,18.56.49,10.55.59,13.71.59,40.42S181.9,129.87,181.41,140.42Z"/></g></g></svg>