<svg xmlns="http://www.w3.org/2000/svg" viewBox="0 0 219.86 123.52"><defs><style>.cls-1{fill:#006127;}.cls-2{fill:#b19852;}</style></defs><g id="レイヤー_2" data-name="レイヤー 2"><g id="レイヤー_6" data-name="レイヤー 6"><path class="cls-1" d="M166.13,3.22c11,.23,17.24,6.47,20.53,19.82C176,20.13,171.22,12.42,166.13,3.22Z"/><path class="cls-1" d="M200.57,35.27c-7.63-11.39-7.28-22.76-6.85-34.7C202.63,6.76,205.09,18.8,200.57,35.27Z"/><path class="cls-1" d="M177.58,36c10.64-1.42,17,2.5,22.77,13.42C192.86,51.07,185,46.52,177.58,36Z"/><path class="cls-1" d="M218.86,39.44c2.72,10.49-.17,19.53-7.77,29.07C209.22,56.52,213.3,47.79,218.86,39.44Z"/><path class="cls-1" d="M195.86,62.19c5,8.75,2.58,15.87-7.61,23.28C184.36,78.69,186.91,70.6,195.86,62.19Z"/><path class="cls-1" d="M212.47,85.48C205.06,99.21,193,101,180.77,102.31,188.24,91.73,199.58,88.62,212.47,85.48Z"/><path class="cls-1" d="M166.31,108c-3.41-9.81-.24-17.57,4-25.6C176,90.81,174.88,98.41,166.31,108Z"/><path class="cls-1" d="M168.06,115.39c5.23-.35,15.83.54,15.89,1.34-10.08,5.25-20.68,5.29-31.55,2.62C152.32,118.38,162.76,115.74,168.06,115.39Z"/><path class="cls-1" d="M31,21.93C33.58,9.81,40.55,3,49.88,3.38,47.43,13.14,39.15,21.25,31,21.93Z"/><path class="cls-1" d="M23.38,0c.49,12.52.88,23.84-6,34.36C11.67,24.34,14.32,8.19,23.38,0Z"/><path class="cls-1" d="M16.45,50.09C22.65,38.5,29,34.6,38.85,35.83A24.37,24.37,0,0,1,16.45,50.09Z"/><path class="cls-1" d="M.78,39.36c6,8.34,9.41,17.36,8.22,28.93C.62,59.42-1.32,50,.78,39.36Z"/><path class="cls-1" d="M29.55,85.3C19.48,80,16.22,71.11,21.19,62.54,29.16,68.36,32.34,77,29.55,85.3Z"/><path class="cls-1" d="M38.26,103.41c-13.91-2.35-25.87-4.28-33.84-18.18C17.82,88.82,29.26,91.74,38.26,103.41Z"/><path class="cls-1" d="M46.6,82c4.59,8.21,7.64,16,4.59,25.34C43.06,100.79,41.36,91.93,46.6,82Z"/><path class="cls-1" d="M33.81,116.13c10.64-1.73,21.18-2.35,33.26,2.47C54.31,122.2,43.86,121.83,33.81,116.13Z"/><path class="cls-2" d="M123,34.58C126.48,25.83,150,5.33,150,5.33H126.46a81.15,81.15,0,0,0-15.93,18.94,79,79,0,0,0-5,10.18H86.5c3.78-12.14,2.35-29.12,2.35-29.12H68.08C79.58,52.08,43.4,68.41,43.4,68.41H63.77c2.09,0,8.36-6.31,13.72-14.24A41.17,41.17,0,0,0,81.8,47c1.25-2.94,2.8-6.7,2.89-6.89H104s-3.07,8-1.18,15.35c3.32,12.89,14.46,16.52,22.07,16.52,4.84,0,8.91-.1,8.91-.1-6.4,11.75-8.47,15.89-12.22,20.86-10.06,13.32-14.9,17.56-21.31,21.11A101.78,101.78,0,0,1,75,123.52H99.69c19.33,0,34.15-21.72,38.12-28.31,4.37-7.23,16.86-28,25.48-60.23Zm12.44,33.83c-6.6,0-15.26-5.52-17.38-13-1.84-6.51,2.61-15.36,2.61-15.36H146.2A295,295,0,0,1,135.48,68.41Z"/></g></g></svg>